<?xml version="1.0" encoding="utf-8"?>
<!-- Generator: Adobe Illustrator 24.0.0, SVG Export Plug-In . SVG Version: 6.00 Build 0)  -->
<svg version="1.1" id="Layer_1" xmlns="http://www.w3.org/2000/svg" xmlns:xlink="http://www.w3.org/1999/xlink" x="0px" y="0px"
	 viewBox="0 0 30 30" style="enable-background:new 0 0 30 30;" xml:space="preserve">
<style type="text/css">
	.st0{fill:#9E2064;}
</style>
<g>
	<path class="st0" d="M14.3,3.1v7.6c0,0.4-1.2,1.4-2.1,2v2.2c0.4,0.1,0.7,0.6,0.7,1v11.9c0,0.6-0.5,1.1-1.1,1.1h-0.8
		c-0.6,0-1.1-0.5-1.1-1.1V15.9c0-0.5,0.3-0.9,0.7-1v-2.2c-0.9-0.6-2.3-1.6-2.3-2V3.1C8.5,2.5,8.8,2,9.4,2h0.4v7.9
		c0,0.2,0.2,0.3,0.5,0.3c0.3,0,0.5-0.2,0.5-0.3V2h1v7.9c0,0.2,0.2,0.3,0.5,0.3c0.3,0,0.5-0.2,0.5-0.3V2h0.2
		C13.8,2,14.3,2.5,14.3,3.1z M20.4,2.2c0,0-2.9,1.9-2.9,7c0,0.4,0,0.7,0,1c0,5,1.1,7.2,1.8,8.5v9.5c0,0.4,0.4,0.8,0.8,0.8h0.6
		c0.4,0,0.8-0.4,0.8-0.8v-9.9c0-0.1,0-0.1,0-0.2V3.3C21.5,2.7,21.3,1.8,20.4,2.2z"/>
</g>
</svg>
