<svg id="Layer_1" data-name="Layer 1" xmlns="http://www.w3.org/2000/svg" viewBox="0 0 28.79 28.35"><title>WCK_LOGO</title><path d="M15.6,3.15a11.07,11.07,0,0,1,6.17,14.4,10.87,10.87,0,0,1-1.65,2.83,11.07,11.07,0,0,0,4-10.4A11.08,11.08,0,0,0,15.6,3.15Z" transform="translate(-0.43 -0.7)" fill="#1566ad"/><path d="M29.18,27.21c-.11-.11-3.15-3.1-3.78-3.74a7.61,7.61,0,0,0-1.78-1.14l-.57-2.16a11.06,11.06,0,0,0,1-10.18,11.06,11.06,0,0,1-4,10.4,11.1,11.1,0,0,1-9.46,4.1c-.33,0-.65-.07-1-.12a11.09,11.09,0,0,0,10.73-1.43l2,.54a7,7,0,0,0,1.15,1.78c.65.66,3.64,3.59,3.78,3.74s.61,0,1.19-.61S29.29,27.32,29.18,27.21ZM22,22.56l-.83-.2a10.84,10.84,0,0,0,1.36-1.43l.21.89a.62.62,0,0,1-.46.74A.66.66,0,0,1,22,22.56Zm6.33,4.88a1.39,1.39,0,0,1-.28.39,1.26,1.26,0,0,1-.38.27.13.13,0,0,1-.15,0l-.71-.7a.13.13,0,0,1,0-.19l.6-.61a.13.13,0,0,1,.19,0l.71.7a.14.14,0,0,1,0,.16Z" transform="translate(-0.43 -0.7)" fill="#28a8e0"/><path d="M15.6,3.15c-.32,0-.64-.09-1-.12A11.08,11.08,0,0,0,2.76,13.24a11.58,11.58,0,0,0,.12,2.63,11.08,11.08,0,0,0,17.25,4.51A11.08,11.08,0,0,0,15.6,3.15Z" transform="translate(-0.43 -0.7)" fill="#f8b717"/><path d="M20.12,20.38A11.08,11.08,0,0,1,4.55,18.74a11.38,11.38,0,0,1-1.68-2.88,11.13,11.13,0,0,0,6.83,8.5c.32.05.64.09,1,.12A11.07,11.07,0,0,0,20.12,20.38Z" transform="translate(-0.43 -0.7)" fill="#9e2064"/><path d="M12.33,2.4a10.81,10.81,0,0,1,3.27.75A11.1,11.1,0,0,1,24.09,10,11.07,11.07,0,0,0,4.54,4.83,11,11,0,0,1,12.33,2.4Z" transform="translate(-0.43 -0.7)" fill="#8dc541"/><path d="M2.87,15.86a11.08,11.08,0,0,1,1.67-11A11.07,11.07,0,0,0,9.7,24.36,11.13,11.13,0,0,1,2.87,15.86Z" transform="translate(-0.43 -0.7)" fill="#e86027"/><path d="M2.87,15.86A11.07,11.07,0,0,1,12,3.15,10.53,10.53,0,0,1,14.63,3c.33,0,.65.07,1,.12A11.07,11.07,0,0,0,4.54,4.83,11.08,11.08,0,0,0,2.87,15.86Z" transform="translate(-0.43 -0.7)" fill="#f68b22"/><path d="M17.33,9.62A.9.9,0,1,0,16.21,9h0A.9.9,0,0,0,17.33,9.62Z" transform="translate(-0.43 -0.7)" fill="#fff"/><path d="M16.5,10.52a.42.42,0,1,0-.07-.83.43.43,0,0,0-.38.46h0A.41.41,0,0,0,16.5,10.52Z" transform="translate(-0.43 -0.7)" fill="#fff"/><path d="M14.33,10.71a.41.41,0,0,0,.37-.45.41.41,0,0,0-.45-.37.42.42,0,0,0-.38.45h0A.41.41,0,0,0,14.33,10.71Z" transform="translate(-0.43 -0.7)" fill="#fff"/><path d="M15,8.3a.57.57,0,1,0,.51-.62A.57.57,0,0,0,15,8.3Z" transform="translate(-0.43 -0.7)" fill="#fff"/><path d="M14.48,8.76a.37.37,0,0,0,.32-.41.37.37,0,0,0-.73.08.37.37,0,0,0,.4.33Z" transform="translate(-0.43 -0.7)" fill="#fff"/><path d="M16,9.52a.64.64,0,1,0-1.27.12.62.62,0,0,0,.69.57h0A.64.64,0,0,0,16,9.52Z" transform="translate(-0.43 -0.7)" fill="#fff"/><path d="M15.47,10.67a.34.34,0,0,0-.37-.3.34.34,0,1,0,.06.67.34.34,0,0,0,.31-.36Z" transform="translate(-0.43 -0.7)" fill="#fff"/><path d="M14.86,7.73a.27.27,0,0,0,.3-.22A.25.25,0,0,0,15,7.22a.25.25,0,0,0-.3.21h0a.27.27,0,0,0,.21.3Z" transform="translate(-0.43 -0.7)" fill="#fff"/><path d="M10.72,7.22A1.25,1.25,0,1,0,9.41,6a1.25,1.25,0,0,0,1.31,1.18Z" transform="translate(-0.43 -0.7)" fill="#fff"/><path d="M8.78,16.36a.55.55,0,1,0-.57-.53.55.55,0,0,0,.57.53Z" transform="translate(-0.43 -0.7)" fill="#fff"/><path d="M9,17.35a.89.89,0,0,0-.92-.83.87.87,0,1,0,.92.83Z" transform="translate(-0.43 -0.7)" fill="#fff"/><path d="M10,15.76a.81.81,0,0,0-.77.85.8.8,0,0,0,.85.77.81.81,0,0,0,.77-.84.82.82,0,0,0-.85-.78Z" transform="translate(-0.43 -0.7)" fill="#fff"/><path d="M11.78,16.48a1,1,0,1,0,1,.95h0A1,1,0,0,0,11.78,16.48Z" transform="translate(-0.43 -0.7)" fill="#fff"/><path d="M9.11,20.29a1,1,0,0,0,.94-1,1,1,0,0,0-1-.94,1,1,0,0,0-.94,1,1,1,0,0,0,1,.95Z" transform="translate(-0.43 -0.7)" fill="#fff"/><path d="M8.29,21.05a.51.51,0,0,0,.54.49A.51.51,0,0,0,9.32,21a.52.52,0,0,0-.54-.49A.53.53,0,0,0,8.29,21.05Z" transform="translate(-0.43 -0.7)" fill="#fff"/><path d="M9,22.78a.29.29,0,0,0-.28.31.28.28,0,0,0,.31.28.29.29,0,0,0,.28-.3A.31.31,0,0,0,9,22.78Z" transform="translate(-0.43 -0.7)" fill="#fff"/><path d="M9.51,21.44a.26.26,0,0,0-.25.27.26.26,0,1,0,.52,0h0A.26.26,0,0,0,9.51,21.44Z" transform="translate(-0.43 -0.7)" fill="#fff"/><path d="M7.61,16.39A.35.35,0,0,0,8,16a.36.36,0,0,0-.38-.34.35.35,0,0,0-.34.37A.36.36,0,0,0,7.61,16.39Z" transform="translate(-0.43 -0.7)" fill="#fff"/><path d="M9.13,22.16a.46.46,0,1,0-.92.05.47.47,0,0,0,.48.44.46.46,0,0,0,.44-.49Z" transform="translate(-0.43 -0.7)" fill="#fff"/><path d="M10.09,20.05a.67.67,0,0,0-.65.7.68.68,0,0,0,.7.65.69.69,0,0,0,.65-.71h0A.67.67,0,0,0,10.09,20.05Z" transform="translate(-0.43 -0.7)" fill="#fff"/><path d="M11,18.76a.72.72,0,1,0,.75.68.71.71,0,0,0-.74-.68Z" transform="translate(-0.43 -0.7)" fill="#fff"/><path d="M9.91,18.31a.5.5,0,0,0,1,0,.5.5,0,1,0-1,0Z" transform="translate(-0.43 -0.7)" fill="#fff"/><path d="M9.19,17.81a.33.33,0,0,0,.34.32.32.32,0,0,0,.31-.34.34.34,0,0,0-.34-.32h0A.32.32,0,0,0,9.19,17.81Z" transform="translate(-0.43 -0.7)" fill="#fff"/><path d="M20.48,12.53a.62.62,0,0,0,.41-.78.63.63,0,0,0-1.2.38h0A.62.62,0,0,0,20.48,12.53Z" transform="translate(-0.43 -0.7)" fill="#fff"/><path d="M7.45,15.07a.42.42,0,0,0-.84,0,.44.44,0,0,0,.44.41.42.42,0,0,0,.4-.44Z" transform="translate(-0.43 -0.7)" fill="#fff"/><path d="M6.88,11a.49.49,0,0,0,.47-.52.5.5,0,1,0-.47.52Z" transform="translate(-0.43 -0.7)" fill="#fff"/><path d="M18.77,9.16a.46.46,0,0,0,.31-.58.47.47,0,0,0-.58-.31.48.48,0,0,0-.31.59h0A.46.46,0,0,0,18.77,9.16Z" transform="translate(-0.43 -0.7)" fill="#fff"/><path d="M21.7,9.22a1.35,1.35,0,0,0-2.58.81,1.36,1.36,0,0,0,1.7.89h0A1.34,1.34,0,0,0,21.7,9.22Z" transform="translate(-0.43 -0.7)" fill="#fff"/><path d="M18.79,7.59a.89.89,0,0,0,1.12.58.9.9,0,0,0,.58-1.11.89.89,0,0,0-1.12-.58h0A.88.88,0,0,0,18.79,7.59Z" transform="translate(-0.43 -0.7)" fill="#fff"/><path d="M17.71,10.11a.61.61,0,0,0,1.17-.37.61.61,0,0,0-.77-.41.62.62,0,0,0-.4.77Z" transform="translate(-0.43 -0.7)" fill="#fff"/><path d="M18.22,7.86a.52.52,0,1,0-.65-.34h0a.5.5,0,0,0,.64.34Z" transform="translate(-0.43 -0.7)" fill="#fff"/><path d="M17.07,7.55A.41.41,0,0,0,17.34,7a.4.4,0,0,0-.52-.27.41.41,0,0,0-.27.52h0A.41.41,0,0,0,17.07,7.55Z" transform="translate(-0.43 -0.7)" fill="#fff"/><circle cx="21.78" cy="10.9" r="1" fill="#fff"/><path d="M22.16,9.93a.42.42,0,0,0,.39.44A.42.42,0,0,0,23,10a.42.42,0,0,0-.39-.44h0A.42.42,0,0,0,22.16,9.93Z" transform="translate(-0.43 -0.7)" fill="#fff"/><path d="M21.39,8a.63.63,0,0,0,.59.67.63.63,0,0,0,.09-1.25.63.63,0,0,0-.68.58Z" transform="translate(-0.43 -0.7)" fill="#fff"/><path d="M8.27,10.93a.81.81,0,0,0,.78-.86.82.82,0,0,0-1.64.08h0A.82.82,0,0,0,8.27,10.93Z" transform="translate(-0.43 -0.7)" fill="#fff"/><path d="M9.12,9.75a.65.65,0,1,0,.62-.68.65.65,0,0,0-.62.68Z" transform="translate(-0.43 -0.7)" fill="#fff"/><path d="M6.08,8.92a.63.63,0,0,0,.67.61.65.65,0,0,0,.62-.67.66.66,0,0,0-.68-.62h0a.65.65,0,0,0-.61.68Z" transform="translate(-0.43 -0.7)" fill="#fff"/><circle cx="7.64" cy="11.41" r="0.99" fill="#fff"/><path d="M5.58,12.58a.81.81,0,1,0-.77.85A.81.81,0,0,0,5.58,12.58Z" transform="translate(-0.43 -0.7)" fill="#fff"/><path d="M5,10a.81.81,0,0,0,.75-.83.79.79,0,0,0-1.58.07A.79.79,0,0,0,5,10Z" transform="translate(-0.43 -0.7)" fill="#fff"/><path d="M4.45,11.41A.38.38,0,0,0,4,11.06a.39.39,0,0,0,0,.77.4.4,0,0,0,.38-.39Z" transform="translate(-0.43 -0.7)" fill="#fff"/><path d="M6.18,10.83a.79.79,0,1,0-.75.83.79.79,0,0,0,.75-.83Z" transform="translate(-0.43 -0.7)" fill="#fff"/><path d="M6.51,11.19a.47.47,0,1,0,.49.45A.47.47,0,0,0,6.51,11.19Z" transform="translate(-0.43 -0.7)" fill="#fff"/><path d="M7.29,13.88a.36.36,0,0,0,.36-.38.38.38,0,0,0-.38-.36.38.38,0,0,0-.36.38h0A.37.37,0,0,0,7.29,13.88Z" transform="translate(-0.43 -0.7)" fill="#fff"/><path d="M8.83,13.24a.38.38,0,0,0,.39.36.38.38,0,1,0-.39-.36Z" transform="translate(-0.43 -0.7)" fill="#fff"/><path d="M6,13.75a.62.62,0,0,0-.58.65.61.61,0,1,0,1.22-.06A.61.61,0,0,0,6,13.75Z" transform="translate(-0.43 -0.7)" fill="#fff"/><path d="M6.3,13.58A.6.6,0,0,0,6.88,13a.62.62,0,0,0-.63-.58.61.61,0,1,0,0,1.21Z" transform="translate(-0.43 -0.7)" fill="#fff"/><path d="M5.12,13.49a.3.3,0,0,0-.29.32.3.3,0,0,0,.32.29.32.32,0,0,0,.3-.32h0A.31.31,0,0,0,5.12,13.49Z" transform="translate(-0.43 -0.7)" fill="#fff"/><path d="M10,7.84a.26.26,0,0,0,.24-.27A.25.25,0,0,0,10,7.32a.26.26,0,0,0-.24.27h0A.27.27,0,0,0,10,7.84Z" transform="translate(-0.43 -0.7)" fill="#fff"/><path d="M12.74,4.79a.42.42,0,1,0-.1.84.43.43,0,0,0,.47-.37h0A.43.43,0,0,0,12.74,4.79Z" transform="translate(-0.43 -0.7)" fill="#fff"/><path d="M8.12,8.13a.72.72,0,1,0,.68-.75h0A.72.72,0,0,0,8.12,8.13Z" transform="translate(-0.43 -0.7)" fill="#fff"/><path d="M8.28,6.68A.79.79,0,0,0,9,5.86a.81.81,0,0,0-.83-.77.79.79,0,0,0-.76.83h0A.79.79,0,0,0,8.28,6.68Z" transform="translate(-0.43 -0.7)" fill="#fff"/><path d="M15.23,13.48a.26.26,0,0,0,.26-.28.28.28,0,0,0-.28-.26.27.27,0,0,0-.26.28h0A.26.26,0,0,0,15.23,13.48Z" transform="translate(-0.43 -0.7)" fill="#fff"/><path d="M17.39,12.56a.36.36,0,1,0,0,.71.36.36,0,0,0,0-.71Z" transform="translate(-0.43 -0.7)" fill="#fff"/><path d="M16.06,16.63a.28.28,0,0,0-.27.3.3.3,0,0,0,.3.28.29.29,0,0,0,.27-.31h0A.28.28,0,0,0,16.06,16.63Z" transform="translate(-0.43 -0.7)" fill="#fff"/><path d="M20.88,15.56a.27.27,0,0,0,.28.26.26.26,0,0,0,.26-.28.27.27,0,0,0-.27-.26h0A.28.28,0,0,0,20.88,15.56Z" transform="translate(-0.43 -0.7)" fill="#fff"/><path d="M22.41,15.45a.26.26,0,0,0-.26.28.28.28,0,0,0,.28.26.28.28,0,0,0,.26-.28h0A.26.26,0,0,0,22.41,15.45Z" transform="translate(-0.43 -0.7)" fill="#fff"/><path d="M20.9,18.44a.41.41,0,1,0,.43.39.4.4,0,0,0-.42-.39Z" transform="translate(-0.43 -0.7)" fill="#fff"/><path d="M18.86,12.67a.28.28,0,0,0-.28-.26.27.27,0,0,0-.26.28.26.26,0,0,0,.28.26h0A.28.28,0,0,0,18.86,12.67Z" transform="translate(-0.43 -0.7)" fill="#fff"/><path d="M17.39,16.32a.46.46,0,0,0-.57-.29.45.45,0,0,0-.29.57.43.43,0,0,0,.56.29.45.45,0,0,0,.3-.56Z" transform="translate(-0.43 -0.7)" fill="#fff"/><path d="M18,13.1a.37.37,0,1,0,.46.24A.37.37,0,0,0,18,13.1Z" transform="translate(-0.43 -0.7)" fill="#fff"/><path d="M18.63,16.14a.34.34,0,0,0-.23.43.36.36,0,0,0,.44.24.35.35,0,0,0,.23-.44.34.34,0,0,0-.43-.23Z" transform="translate(-0.43 -0.7)" fill="#fff"/><path d="M21.81,15.93a.34.34,0,0,0-.23.44.35.35,0,0,0,.44.22.34.34,0,0,0,.22-.44A.34.34,0,0,0,21.81,15.93Z" transform="translate(-0.43 -0.7)" fill="#fff"/><path d="M19.55,14.9a.44.44,0,0,0,.27.84.44.44,0,1,0-.26-.84Z" transform="translate(-0.43 -0.7)" fill="#fff"/><path d="M16.69,14.67a1.39,1.39,0,1,0-.91,1.75h0A1.4,1.4,0,0,0,16.69,14.67Z" transform="translate(-0.43 -0.7)" fill="#fff"/><path d="M20,15.94a1.25,1.25,0,0,0-.81,1.57,1.25,1.25,0,1,0,2.39-.76h0A1.25,1.25,0,0,0,20,15.94Z" transform="translate(-0.43 -0.7)" fill="#fff"/><path d="M20.42,13.37a.92.92,0,1,0-.6,1.16A.93.93,0,0,0,20.42,13.37Z" transform="translate(-0.43 -0.7)" fill="#fff"/><path d="M17.94,16.12A1,1,0,1,0,17,15a1,1,0,0,0,1,1.1Z" transform="translate(-0.43 -0.7)" fill="#fff"/><path d="M17.13,14.26a.48.48,0,0,0,.32-.6.49.49,0,0,0-.61-.31.48.48,0,0,0,.29.91Z" transform="translate(-0.43 -0.7)" fill="#fff"/><path d="M20.66,14.2a.48.48,0,0,0-.32.6.48.48,0,0,0,.61.32.48.48,0,1,0-.29-.92Z" transform="translate(-0.43 -0.7)" fill="#fff"/><path d="M16.33,13.44a.58.58,0,0,0,.39-.74.59.59,0,0,0-1.13.35.58.58,0,0,0,.74.39Z" transform="translate(-0.43 -0.7)" fill="#fff"/><path d="M18.68,20.35a.93.93,0,0,0,0,1.85.93.93,0,1,0,0-1.85Z" transform="translate(-0.43 -0.7)" fill="#fff"/><path d="M18.66,19.5a.84.84,0,0,0-.84-.85.85.85,0,0,0,0,1.7.84.84,0,0,0,.84-.85Z" transform="translate(-0.43 -0.7)" fill="#fff"/><path d="M19.86,18.93a.8.8,0,1,0,.8.8h0a.8.8,0,0,0-.8-.8Z" transform="translate(-0.43 -0.7)" fill="#fff"/><path d="M17.07,17.63a.79.79,0,0,0,.8.79.79.79,0,0,0,0-1.58.79.79,0,0,0-.8.79Z" transform="translate(-0.43 -0.7)" fill="#fff"/><path d="M19,19a.5.5,0,1,0-.49-.5h0A.49.49,0,0,0,19,19Z" transform="translate(-0.43 -0.7)" fill="#fff"/><path d="M18.91,6.43a.26.26,0,0,0-.07-.51.25.25,0,0,0-.22.29h0A.26.26,0,0,0,18.91,6.43Z" transform="translate(-0.43 -0.7)" fill="#fff"/><path d="M21,8.1a.31.31,0,1,0-.09-.61.3.3,0,0,0-.26.35h0A.3.3,0,0,0,21,8.1Z" transform="translate(-0.43 -0.7)" fill="#fff"/><path d="M22,7.27a1.22,1.22,0,0,0,.36-.18A11.28,11.28,0,0,0,20.5,5.26a1.35,1.35,0,0,0,.42,1.86A1.38,1.38,0,0,0,22,7.27Z" transform="translate(-0.43 -0.7)" fill="#fff"/><path d="M23.19,8.21a.7.7,0,0,0-.31.93.68.68,0,0,0,.57.38.7.7,0,0,0,.4-.09A10.31,10.31,0,0,0,23.19,8.21Z" transform="translate(-0.43 -0.7)" fill="#fff"/><path d="M4.24,10.14a.84.84,0,0,0-.49-.72A11.28,11.28,0,0,0,3.17,11a.83.83,0,0,0,1-.56A.9.9,0,0,0,4.24,10.14Z" transform="translate(-0.43 -0.7)" fill="#fff"/><path d="M5.55,8.31a1,1,0,0,0,.22-1.86A11.44,11.44,0,0,0,4.66,7.82,1,1,0,0,0,5.55,8.31Z" transform="translate(-0.43 -0.7)" fill="#fff"/></svg>